<svg width="270" height="254" viewBox="0 0 270 254" fill="none" xmlns="http://www.w3.org/2000/svg">
<rect x="24" y="243" width="222" height="11" fill="#E8F7FD"/>
<rect y="233" width="50" height="10" fill="#E8F7FD"/>
<rect x="220" y="233" width="50" height="10" fill="#E8F7FD"/>
<rect x="20" y="222" width="30" height="15" fill="#E8F7FD"/>
<rect x="220" y="222" width="30" height="15" fill="#E8F7FD"/>
<rect x="200" y="222" width="27" height="9" fill="#E8F7FD"/>
<rect x="43" y="222" width="27" height="9" fill="#E8F7FD"/>
<rect x="105" y="194" width="8" height="22" fill="#B9E7F9"/>
<rect x="176" y="170" width="15" height="46" fill="#0E76A0"/>
<rect x="167" y="157" width="13" height="59" fill="#B9E7F9"/>
<path d="M77 46H105V88H77V46Z" fill="#0E76A0"/>
<rect x="175" y="48" width="27" height="40" fill="#0E76A0"/>
<rect x="159" y="51" width="21" height="16" fill="#E8F7FD"/>
<rect x="99" y="51" width="21" height="16" fill="#E8F7FD"/>
<rect x="53" y="159" width="17" height="11" fill="#0E76A0"/>
<rect x="73" y="194" width="21" height="11" fill="#0E76A0"/>
<rect x="88" y="170" width="15" height="46" fill="#0E76A0"/>
<rect x="99" y="151" width="21" height="54" fill="#E8F7FD"/>
<rect x="116" y="159" width="48" height="56" fill="#E8F7FD"/>
<rect x="150" y="173" width="20" height="53" fill="#E8F7FD"/>
<rect x="109" y="178" width="20" height="48" fill="#E8F7FD"/>
<rect x="116" y="194" width="45" height="11" fill="#E8F7FD"/>
<rect x="65" y="159" width="12" height="46" fill="#E8F7FD"/>
<rect x="99" y="194" width="10" height="22" fill="#B9E7F9"/>
<rect x="120" y="194" width="10" height="32" fill="#B9E7F9"/>
<rect x="149" y="194" width="10" height="32" fill="#B9E7F9"/>
<rect x="125" y="205" width="29" height="10" fill="#B9E7F9"/>
<rect x="159" y="146" width="21" height="32" fill="#B9E7F9"/>
<rect x="120" y="145" width="47" height="21" fill="#B9E7F9"/>
<rect x="99" y="144" width="27" height="12" fill="#B9E7F9"/>
<rect x="131" y="114" width="18" height="17" fill="#E8F7FD"/>
<rect x="122" y="127" width="13" height="9" fill="#E8F7FD"/>
<rect x="145" y="127" width="15" height="9" fill="#E8F7FD"/>
<rect x="135" y="127" width="10" height="9" fill="#0E76A0"/>
<rect x="177" y="131" width="14" height="16" fill="#0E76A0"/>
<rect x="88" y="132" width="13" height="15" fill="#0E76A0"/>
<rect x="77" y="122" width="17" height="18" fill="#0E76A0"/>
<rect x="186" y="123" width="16" height="17" fill="#0E76A0"/>
<rect x="172" y="83" width="30" height="44" fill="#3ABBEE"/>
<rect x="77" y="83" width="31" height="44" fill="#3ABBEE"/>
<rect x="95" y="83" width="89" height="28" fill="#3ABBEE"/>
<rect x="116" y="107" width="48" height="11" fill="#3ABBEE"/>
<rect x="98" y="73" width="82" height="17" fill="#3ABBEE"/>
<rect x="104" y="63" width="72" height="15" fill="#3ABBEE"/>
<rect x="94" y="63" width="14" height="10" fill="#0E76A0"/>
<rect x="170" y="63" width="15" height="10" fill="#0E76A0"/>
<rect x="170" y="41" width="32" height="10" fill="#E8F7FD"/>
<path d="M77 41H108V51H77V41Z" fill="#E8F7FD"/>
<rect x="45" y="22" width="16" height="6" fill="#E8F7FD"/>
<rect x="50" y="33" width="16" height="6" transform="rotate(-90 50 33)" fill="#E8F7FD"/>
<rect x="214" y="29" width="16" height="6" fill="#E8F7FD"/>
<rect x="219" y="40" width="16" height="6" transform="rotate(-90 219 40)" fill="#E8F7FD"/>
<rect x="222" y="104" width="16" height="6" fill="#E8F7FD"/>
<rect x="227" y="115" width="16" height="6" transform="rotate(-90 227 115)" fill="#E8F7FD"/>
<rect x="43" y="107" width="16" height="6" fill="#E8F7FD"/>
<rect x="48" y="118" width="16" height="6" transform="rotate(-90 48 118)" fill="#E8F7FD"/>
<rect x="136" width="8" height="13" fill="#E8F7FD"/>
<rect x="132" y="6" width="16" height="7" fill="#E8F7FD"/>
<rect x="159" y="13" width="7" height="16" fill="#E8F7FD"/>
<rect x="114" y="13" width="7" height="16" fill="#E8F7FD"/>
<rect x="163" y="17" width="8" height="8" fill="#E8F7FD"/>
<rect x="109" y="17" width="8" height="8" fill="#E8F7FD"/>
<rect x="120" y="25" width="8" height="12" fill="#E8F7FD"/>
<rect x="152" y="25" width="8" height="12" fill="#E8F7FD"/>
<rect x="136" y="19" width="8" height="19" fill="#E8F7FD"/>
<rect x="120" y="36" width="40" height="12" fill="#B9E7F9"/>
<rect x="128" y="32" width="24" height="10" fill="#E8F7FD"/>
<rect x="99" y="132" width="81" height="15" fill="#E8F7FD"/>
<rect x="156" y="127" width="36" height="9" fill="#3ABBEE"/>
<rect x="88" y="124" width="36" height="12" fill="#3ABBEE"/>
<rect x="148" y="116" width="17" height="11" fill="#3ABBEE"/>
<rect x="117" y="115" width="16" height="12" fill="#3ABBEE"/>
<rect x="160" y="107" width="20" height="20" fill="black"/>
<rect x="99" y="107" width="21" height="20" fill="black"/>
<rect x="180" y="122" width="12" height="9" fill="#3ABBEE"/>
<rect x="170" y="47" width="10" height="9" fill="#E8F7FD"/>
<rect x="99" y="48" width="9" height="7" fill="#E8F7FD"/>
<rect x="125" y="32" width="30" height="4" fill="#E8F7FD"/>
<rect x="24" y="240" width="26" height="7" fill="#E8F7FD"/>
<rect x="220" y="240" width="26" height="7" fill="#E8F7FD"/>
</svg>
