<svg width="399" height="374" viewBox="0 0 399 374" fill="none" xmlns="http://www.w3.org/2000/svg">
<rect x="84" y="243" width="222" height="11" fill="#E8F7FD"/>
<rect x="60" y="233" width="50" height="10" fill="#E8F7FD"/>
<rect x="280" y="233" width="50" height="10" fill="#E8F7FD"/>
<rect x="80" y="222" width="30" height="11" fill="#E8F7FD"/>
<rect x="280" y="222" width="30" height="11" fill="#E8F7FD"/>
<rect x="260" y="222" width="20" height="9" fill="#E8F7FD"/>
<rect x="110" y="222" width="20" height="9" fill="#E8F7FD"/>
<rect x="159" y="156" width="21" height="38" fill="#E8F7FD"/>
<rect x="180" y="166" width="39" height="28" fill="#E8F7FD"/>
<rect x="219" y="178" width="11" height="48" fill="#E8F7FD"/>
<rect x="169" y="178" width="11" height="48" fill="#E8F7FD"/>
<rect x="190" y="194" width="20" height="11" fill="#E8F7FD"/>
<rect x="125" y="159" width="12" height="46" fill="#E8F7FD"/>
<rect x="113" y="159" width="12" height="11" fill="#0E76A0"/>
<rect x="137" y="194" width="11" height="11" fill="#0E76A0"/>
<rect x="148" y="170" width="11" height="46" fill="#0E76A0"/>
<rect x="240" y="170" width="11" height="46" fill="#0E76A0"/>
<rect x="159" y="194" width="10" height="22" fill="#B9E7F9"/>
<rect x="230" y="178" width="10" height="38" fill="#B9E7F9"/>
<rect x="180" y="194" width="10" height="32" fill="#B9E7F9"/>
<rect x="209" y="194" width="10" height="32" fill="#B9E7F9"/>
<rect x="190" y="205" width="19" height="10" fill="#B9E7F9"/>
<rect x="219" y="146" width="21" height="32" fill="#B9E7F9"/>
<rect x="180" y="146" width="39" height="20" fill="#B9E7F9"/>
<rect x="159" y="146" width="21" height="10" fill="#B9E7F9"/>
<rect x="159" y="136" width="81" height="11" fill="#E8F7FD"/>
<rect x="191" y="118" width="18" height="9" fill="#E8F7FD"/>
<rect x="184" y="127" width="11" height="9" fill="#E8F7FD"/>
<rect x="205" y="127" width="11" height="9" fill="#E8F7FD"/>
<rect x="195" y="127" width="10" height="9" fill="#0E76A0"/>
<rect x="240" y="136" width="11" height="11" fill="#0E76A0"/>
<rect x="148" y="136" width="11" height="11" fill="#0E76A0"/>
<rect x="137" y="127" width="11" height="13" fill="#0E76A0"/>
<rect x="251" y="127" width="11" height="13" fill="#0E76A0"/>
<rect x="148" y="127" width="36" height="9" fill="#3ABBEE"/>
<rect x="216" y="127" width="36" height="9" fill="#3ABBEE"/>
<rect x="240" y="83" width="22" height="44" fill="#3ABBEE"/>
<rect x="137" y="83" width="22" height="44" fill="#3ABBEE"/>
<rect x="159" y="83" width="81" height="24" fill="#3ABBEE"/>
<rect x="180" y="107" width="40" height="11" fill="#3ABBEE"/>
<rect x="180" y="118" width="11" height="9" fill="#3ABBEE"/>
<rect x="209" y="118" width="11" height="9" fill="#3ABBEE"/>
<rect x="220" y="107" width="20" height="20" fill="black"/>
<rect x="159" y="107" width="21" height="20" fill="black"/>
<rect x="158" y="73" width="82" height="11" fill="#3ABBEE"/>
<rect x="168" y="63" width="62" height="10" fill="#3ABBEE"/>
<rect x="240" y="51" width="22" height="32" fill="#0E76A0"/>
<path d="M137 51H159V83H137V51Z" fill="#0E76A0"/>
<rect x="159" y="63" width="9" height="10" fill="#0E76A0"/>
<rect x="230" y="63" width="10" height="10" fill="#0E76A0"/>
<rect x="219" y="51" width="21" height="12" fill="#E8F7FD"/>
<rect x="159" y="51" width="21" height="12" fill="#E8F7FD"/>
<rect x="230" y="41" width="32" height="10" fill="#E8F7FD"/>
<path d="M137 41H168V51H137V41Z" fill="#E8F7FD"/>
<rect x="105" y="22" width="16" height="6" fill="#E8F7FD"/>
<rect x="110" y="33" width="16" height="6" transform="rotate(-90 110 33)" fill="#E8F7FD"/>
<rect x="274" y="29" width="16" height="6" fill="#E8F7FD"/>
<rect x="279" y="40" width="16" height="6" transform="rotate(-90 279 40)" fill="#E8F7FD"/>
<rect x="282" y="104" width="16" height="6" fill="#E8F7FD"/>
<rect x="287" y="115" width="16" height="6" transform="rotate(-90 287 115)" fill="#E8F7FD"/>
<rect x="103" y="107" width="16" height="6" fill="#E8F7FD"/>
<rect x="108" y="118" width="16" height="6" transform="rotate(-90 108 118)" fill="#E8F7FD"/>
<rect x="196" width="8" height="13" fill="#E8F7FD"/>
<rect x="192" y="6" width="16" height="7" fill="#E8F7FD"/>
<rect x="219" y="13" width="7" height="16" fill="#E8F7FD"/>
<rect x="174" y="13" width="7" height="16" fill="#E8F7FD"/>
<rect x="226" y="17" width="5" height="8" fill="#E8F7FD"/>
<rect x="169" y="17" width="5" height="8" fill="#E8F7FD"/>
<rect x="180" y="25" width="8" height="11" fill="#E8F7FD"/>
<rect x="212" y="25" width="8" height="11" fill="#E8F7FD"/>
<rect x="196" y="19" width="8" height="13" fill="#E8F7FD"/>
<rect x="180" y="36" width="40" height="12" fill="#B9E7F9"/>
<rect x="188" y="32" width="24" height="10" fill="#E8F7FD"/>
<path d="M3.3775 302.188C3.3775 301.021 3.77334 300.042 4.565 299.25C5.39834 298.417 6.39834 298 7.565 298H43.94C45.1067 298 46.1067 298.396 46.94 299.188C47.7317 300.021 48.1275 301.021 48.1275 302.188C48.1275 303.354 47.7317 304.333 46.94 305.125C46.69 305.375 46.44 305.583 46.19 305.75L19.69 326.375H43.94C45.1067 326.375 46.1067 326.771 46.94 327.562C47.7317 328.396 48.1275 329.396 48.1275 330.562C48.1275 331.729 47.7108 332.729 46.8775 333.562C46.0858 334.354 45.1067 334.75 43.94 334.75H7.565C6.39834 334.75 5.41917 334.333 4.6275 333.5C3.79417 332.708 3.3775 331.729 3.3775 330.562C3.3775 329.479 3.73167 328.542 4.44 327.75H4.3775L4.6275 327.562C4.8775 327.312 5.14834 327.104 5.44 326.938L32.2525 306.375H7.565C6.39834 306.375 5.41917 305.958 4.6275 305.125C3.79417 304.333 3.3775 303.354 3.3775 302.188ZM77.7725 298H80.6475H101.898C103.064 298.042 104.023 298.479 104.773 299.312C105.564 300.146 105.96 301.146 105.96 302.312C105.752 304.812 104.398 306.167 101.898 306.375H79.8975C78.3142 306.458 77.0017 307.062 75.96 308.188C74.9183 309.312 74.1475 310.604 73.6475 312.062C73.1892 313.479 72.96 314.938 72.96 316.438C72.96 317.938 73.1892 319.417 73.6475 320.875C74.1475 322.292 74.9183 323.562 75.96 324.688C77.0017 325.812 78.3142 326.417 79.8975 326.5H101.898C103.064 326.542 104.023 326.979 104.773 327.812C105.564 328.646 105.96 329.646 105.96 330.812C105.918 331.938 105.502 332.896 104.71 333.688C103.96 334.438 103.023 334.833 101.898 334.875H78.96H77.7725C74.8558 334.708 72.4392 333.604 70.5225 331.562C68.6475 329.479 67.2933 327.125 66.46 324.5C65.6683 321.875 65.2725 319.188 65.2725 316.438C65.2725 313.688 65.6892 311 66.5225 308.375C67.3558 305.75 68.71 303.417 70.585 301.375C72.46 299.292 74.8558 298.167 77.7725 298ZM105.835 316.188C105.835 317.354 105.418 318.333 104.585 319.125C103.793 319.958 102.814 320.375 101.648 320.375H82.7725C81.6058 320.375 80.6058 319.979 79.7725 319.188C78.9808 318.354 78.585 317.354 78.585 316.188C78.585 315.021 78.9808 314.021 79.7725 313.188C80.6058 312.396 81.6058 312 82.7725 312H101.648C102.814 312 103.793 312.417 104.585 313.25C105.418 314.042 105.835 315.021 105.835 316.188ZM143.668 296.312C145.834 296.312 147.959 296.562 150.043 297.062C152.168 297.562 154.188 298.312 156.105 299.312C158.022 300.271 159.709 301.562 161.168 303.188C162.668 304.812 163.48 306.75 163.605 309V311.625V331.562C163.355 334.062 161.98 335.417 159.48 335.625C158.313 335.625 157.293 335.25 156.418 334.5C155.584 333.708 155.168 332.729 155.168 331.562V310.938C155.084 309.646 154.584 308.583 153.668 307.75C152.793 306.875 151.793 306.188 150.668 305.688C149.584 305.188 148.438 304.812 147.23 304.562C146.063 304.312 144.876 304.188 143.668 304.188C142.459 304.188 141.251 304.312 140.043 304.562C138.876 304.812 137.73 305.188 136.605 305.688C135.522 306.188 134.522 306.875 133.605 307.75C132.73 308.583 132.251 309.646 132.168 310.938V331.562C131.959 334.062 130.605 335.417 128.105 335.625C126.938 335.625 125.918 335.25 125.043 334.5C124.209 333.708 123.793 332.729 123.793 331.562V311.625V309C123.918 306.75 124.709 304.812 126.168 303.188C127.626 301.562 129.313 300.271 131.23 299.312C133.147 298.312 135.147 297.562 137.23 297.062C139.355 296.562 141.501 296.312 143.668 296.312ZM197.25 306.375C195.667 306.458 194.333 307.062 193.25 308.188C192.208 309.312 191.458 310.604 191 312.062C190.542 313.479 190.312 314.938 190.312 316.438C190.312 317.938 190.521 319.417 190.938 320.875C191.396 322.333 192.167 323.625 193.25 324.75C194.333 325.833 195.667 326.417 197.25 326.5H217.875C220.5 326.75 221.938 328.188 222.188 330.812C222.146 331.979 221.708 332.958 220.875 333.75C220.042 334.5 219.042 334.875 217.875 334.875H197.938H195.062C192.146 334.708 189.75 333.604 187.875 331.562C186 329.479 184.646 327.125 183.812 324.5C183.021 321.875 182.625 319.188 182.625 316.438C182.625 314.396 182.854 312.375 183.312 310.375C183.771 308.375 184.479 306.479 185.438 304.688C186.438 302.854 187.75 301.292 189.375 300C191.042 298.708 192.938 298.042 195.062 298H196.25H217.875C220.5 298.25 221.938 299.688 222.188 302.312C222.188 303.479 221.75 304.458 220.875 305.25C220.042 306 219.042 306.375 217.875 306.375H197.25ZM253.52 325.188C253.52 324.021 253.916 323.042 254.708 322.25C255.541 321.417 256.541 321 257.708 321H267.27L265.645 316.375C264.978 314.667 264.312 313.062 263.645 311.562C263.02 310.021 262.291 308.625 261.458 307.375C260.708 306.125 259.853 305.458 258.895 305.375C257.895 305.458 256.999 306.125 256.208 307.375C255.416 308.625 254.687 310.021 254.02 311.562C253.395 313.062 252.749 314.667 252.083 316.375L246.145 332.625C245.728 333.5 245.187 334.229 244.52 334.812C243.895 335.354 242.937 335.625 241.645 335.625C240.437 335.625 239.437 335.208 238.645 334.375C237.895 333.542 237.562 332.542 237.645 331.375C237.687 330.833 237.812 330.333 238.02 329.875L244.895 312.125C246.812 307.458 248.728 303.688 250.645 300.812C252.52 297.979 255.27 296.542 258.895 296.5C262.478 296.542 265.208 297.979 267.083 300.812C268.999 303.604 270.916 307.375 272.833 312.125L279.708 329.875C279.916 330.333 280.041 330.833 280.083 331.375C280.166 332.542 279.812 333.542 279.02 334.375C278.27 335.208 277.291 335.625 276.083 335.625C274.708 335.625 273.687 335.354 273.02 334.812C272.395 334.229 271.874 333.5 271.458 332.625L270.27 329.375H257.708C256.541 329.375 255.562 328.958 254.77 328.125C253.937 327.333 253.52 326.354 253.52 325.188ZM302.165 335.625C301.04 335.583 300.082 335.188 299.29 334.438C298.498 333.646 298.082 332.688 298.04 331.562V316C298.082 313.042 298.498 310.25 299.29 307.625C300.123 305 301.478 302.792 303.353 301C305.269 299.167 307.686 298.167 310.603 298H334.728C335.853 298.042 336.79 298.458 337.54 299.25C338.332 300 338.748 300.938 338.79 302.062C338.79 303.229 338.394 304.229 337.603 305.062C336.853 305.896 335.894 306.333 334.728 306.375H312.728C311.144 306.458 309.832 307.062 308.79 308.188C307.748 309.312 307.082 310.604 306.79 312.062C306.54 313.479 306.436 315.042 306.478 316.75V331.562C306.436 332.729 305.998 333.708 305.165 334.5C304.332 335.25 303.332 335.625 302.165 335.625ZM309.415 319.188C309.415 318.021 309.832 317.042 310.665 316.25C311.457 315.417 312.436 315 313.603 315H334.728C335.894 315 336.873 315.417 337.665 316.25C338.498 317.042 338.915 318.021 338.915 319.188C338.915 320.354 338.519 321.354 337.728 322.188C336.894 322.979 335.894 323.375 334.728 323.375H313.603C312.436 323.375 311.436 322.979 310.603 322.188C309.811 321.354 309.415 320.354 309.415 319.188ZM367.747 298H370.622H391.872C393.039 298.042 393.997 298.479 394.747 299.312C395.539 300.146 395.935 301.146 395.935 302.312C395.727 304.812 394.372 306.167 391.872 306.375H369.872C368.289 306.458 366.977 307.062 365.935 308.188C364.893 309.312 364.122 310.604 363.622 312.062C363.164 313.479 362.935 314.938 362.935 316.438C362.935 317.938 363.164 319.417 363.622 320.875C364.122 322.292 364.893 323.562 365.935 324.688C366.977 325.812 368.289 326.417 369.872 326.5H391.872C393.039 326.542 393.997 326.979 394.747 327.812C395.539 328.646 395.935 329.646 395.935 330.812C395.893 331.938 395.477 332.896 394.685 333.688C393.935 334.438 392.997 334.833 391.872 334.875H368.935H367.747C364.831 334.708 362.414 333.604 360.497 331.562C358.622 329.479 357.268 327.125 356.435 324.5C355.643 321.875 355.247 319.188 355.247 316.438C355.247 313.688 355.664 311 356.497 308.375C357.331 305.75 358.685 303.417 360.56 301.375C362.435 299.292 364.831 298.167 367.747 298ZM395.81 316.188C395.81 317.354 395.393 318.333 394.56 319.125C393.768 319.958 392.789 320.375 391.622 320.375H372.747C371.581 320.375 370.581 319.979 369.747 319.188C368.956 318.354 368.56 317.354 368.56 316.188C368.56 315.021 368.956 314.021 369.747 313.188C370.581 312.396 371.581 312 372.747 312H391.622C392.789 312 393.768 312.417 394.56 313.25C395.393 314.042 395.81 315.021 395.81 316.188Z" fill="#3ABBEE"/>
<path d="M3.3775 297.188C3.3775 296.021 3.77334 295.042 4.565 294.25C5.39834 293.417 6.39834 293 7.565 293H43.94C45.1067 293 46.1067 293.396 46.94 294.188C47.7317 295.021 48.1275 296.021 48.1275 297.188C48.1275 298.354 47.7317 299.333 46.94 300.125C46.69 300.375 46.44 300.583 46.19 300.75L19.69 321.375H43.94C45.1067 321.375 46.1067 321.771 46.94 322.562C47.7317 323.396 48.1275 324.396 48.1275 325.562C48.1275 326.729 47.7108 327.729 46.8775 328.562C46.0858 329.354 45.1067 329.75 43.94 329.75H7.565C6.39834 329.75 5.41917 329.333 4.6275 328.5C3.79417 327.708 3.3775 326.729 3.3775 325.562C3.3775 324.479 3.73167 323.542 4.44 322.75H4.3775L4.6275 322.562C4.8775 322.312 5.14834 322.104 5.44 321.938L32.2525 301.375H7.565C6.39834 301.375 5.41917 300.958 4.6275 300.125C3.79417 299.333 3.3775 298.354 3.3775 297.188ZM77.7725 293H80.6475H101.898C103.064 293.042 104.023 293.479 104.773 294.312C105.564 295.146 105.96 296.146 105.96 297.312C105.752 299.812 104.398 301.167 101.898 301.375H79.8975C78.3142 301.458 77.0017 302.062 75.96 303.188C74.9183 304.312 74.1475 305.604 73.6475 307.062C73.1892 308.479 72.96 309.938 72.96 311.438C72.96 312.938 73.1892 314.417 73.6475 315.875C74.1475 317.292 74.9183 318.562 75.96 319.688C77.0017 320.812 78.3142 321.417 79.8975 321.5H101.898C103.064 321.542 104.023 321.979 104.773 322.812C105.564 323.646 105.96 324.646 105.96 325.812C105.918 326.938 105.502 327.896 104.71 328.688C103.96 329.438 103.023 329.833 101.898 329.875H78.96H77.7725C74.8558 329.708 72.4392 328.604 70.5225 326.562C68.6475 324.479 67.2933 322.125 66.46 319.5C65.6683 316.875 65.2725 314.188 65.2725 311.438C65.2725 308.688 65.6892 306 66.5225 303.375C67.3558 300.75 68.71 298.417 70.585 296.375C72.46 294.292 74.8558 293.167 77.7725 293ZM105.835 311.188C105.835 312.354 105.418 313.333 104.585 314.125C103.793 314.958 102.814 315.375 101.648 315.375H82.7725C81.6058 315.375 80.6058 314.979 79.7725 314.188C78.9808 313.354 78.585 312.354 78.585 311.188C78.585 310.021 78.9808 309.021 79.7725 308.188C80.6058 307.396 81.6058 307 82.7725 307H101.648C102.814 307 103.793 307.417 104.585 308.25C105.418 309.042 105.835 310.021 105.835 311.188ZM143.668 291.312C145.834 291.312 147.959 291.562 150.043 292.062C152.168 292.562 154.188 293.312 156.105 294.312C158.022 295.271 159.709 296.562 161.168 298.188C162.668 299.812 163.48 301.75 163.605 304V306.625V326.562C163.355 329.062 161.98 330.417 159.48 330.625C158.313 330.625 157.293 330.25 156.418 329.5C155.584 328.708 155.168 327.729 155.168 326.562V305.938C155.084 304.646 154.584 303.583 153.668 302.75C152.793 301.875 151.793 301.188 150.668 300.688C149.584 300.188 148.438 299.812 147.23 299.562C146.063 299.312 144.876 299.188 143.668 299.188C142.459 299.188 141.251 299.312 140.043 299.562C138.876 299.812 137.73 300.188 136.605 300.688C135.522 301.188 134.522 301.875 133.605 302.75C132.73 303.583 132.251 304.646 132.168 305.938V326.562C131.959 329.062 130.605 330.417 128.105 330.625C126.938 330.625 125.918 330.25 125.043 329.5C124.209 328.708 123.793 327.729 123.793 326.562V306.625V304C123.918 301.75 124.709 299.812 126.168 298.188C127.626 296.562 129.313 295.271 131.23 294.312C133.147 293.312 135.147 292.562 137.23 292.062C139.355 291.562 141.501 291.312 143.668 291.312ZM197.25 301.375C195.667 301.458 194.333 302.062 193.25 303.188C192.208 304.312 191.458 305.604 191 307.062C190.542 308.479 190.312 309.938 190.312 311.438C190.312 312.938 190.521 314.417 190.938 315.875C191.396 317.333 192.167 318.625 193.25 319.75C194.333 320.833 195.667 321.417 197.25 321.5H217.875C220.5 321.75 221.938 323.188 222.188 325.812C222.146 326.979 221.708 327.958 220.875 328.75C220.042 329.5 219.042 329.875 217.875 329.875H197.938H195.062C192.146 329.708 189.75 328.604 187.875 326.562C186 324.479 184.646 322.125 183.812 319.5C183.021 316.875 182.625 314.188 182.625 311.438C182.625 309.396 182.854 307.375 183.312 305.375C183.771 303.375 184.479 301.479 185.438 299.688C186.438 297.854 187.75 296.292 189.375 295C191.042 293.708 192.938 293.042 195.062 293H196.25H217.875C220.5 293.25 221.938 294.688 222.188 297.312C222.188 298.479 221.75 299.458 220.875 300.25C220.042 301 219.042 301.375 217.875 301.375H197.25ZM253.52 320.188C253.52 319.021 253.916 318.042 254.708 317.25C255.541 316.417 256.541 316 257.708 316H267.27L265.645 311.375C264.978 309.667 264.312 308.062 263.645 306.562C263.02 305.021 262.291 303.625 261.458 302.375C260.708 301.125 259.853 300.458 258.895 300.375C257.895 300.458 256.999 301.125 256.208 302.375C255.416 303.625 254.687 305.021 254.02 306.562C253.395 308.062 252.749 309.667 252.083 311.375L246.145 327.625C245.728 328.5 245.187 329.229 244.52 329.812C243.895 330.354 242.937 330.625 241.645 330.625C240.437 330.625 239.437 330.208 238.645 329.375C237.895 328.542 237.562 327.542 237.645 326.375C237.687 325.833 237.812 325.333 238.02 324.875L244.895 307.125C246.812 302.458 248.728 298.688 250.645 295.812C252.52 292.979 255.27 291.542 258.895 291.5C262.478 291.542 265.208 292.979 267.083 295.812C268.999 298.604 270.916 302.375 272.833 307.125L279.708 324.875C279.916 325.333 280.041 325.833 280.083 326.375C280.166 327.542 279.812 328.542 279.02 329.375C278.27 330.208 277.291 330.625 276.083 330.625C274.708 330.625 273.687 330.354 273.02 329.812C272.395 329.229 271.874 328.5 271.458 327.625L270.27 324.375H257.708C256.541 324.375 255.562 323.958 254.77 323.125C253.937 322.333 253.52 321.354 253.52 320.188ZM302.165 330.625C301.04 330.583 300.082 330.188 299.29 329.438C298.498 328.646 298.082 327.688 298.04 326.562V311C298.082 308.042 298.498 305.25 299.29 302.625C300.123 300 301.478 297.792 303.353 296C305.269 294.167 307.686 293.167 310.603 293H334.728C335.853 293.042 336.79 293.458 337.54 294.25C338.332 295 338.748 295.938 338.79 297.062C338.79 298.229 338.394 299.229 337.603 300.062C336.853 300.896 335.894 301.333 334.728 301.375H312.728C311.144 301.458 309.832 302.062 308.79 303.188C307.748 304.312 307.082 305.604 306.79 307.062C306.54 308.479 306.436 310.042 306.478 311.75V326.562C306.436 327.729 305.998 328.708 305.165 329.5C304.332 330.25 303.332 330.625 302.165 330.625ZM309.415 314.188C309.415 313.021 309.832 312.042 310.665 311.25C311.457 310.417 312.436 310 313.603 310H334.728C335.894 310 336.873 310.417 337.665 311.25C338.498 312.042 338.915 313.021 338.915 314.188C338.915 315.354 338.519 316.354 337.728 317.188C336.894 317.979 335.894 318.375 334.728 318.375H313.603C312.436 318.375 311.436 317.979 310.603 317.188C309.811 316.354 309.415 315.354 309.415 314.188ZM367.747 293H370.622H391.872C393.039 293.042 393.997 293.479 394.747 294.312C395.539 295.146 395.935 296.146 395.935 297.312C395.727 299.812 394.372 301.167 391.872 301.375H369.872C368.289 301.458 366.977 302.062 365.935 303.188C364.893 304.312 364.122 305.604 363.622 307.062C363.164 308.479 362.935 309.938 362.935 311.438C362.935 312.938 363.164 314.417 363.622 315.875C364.122 317.292 364.893 318.562 365.935 319.688C366.977 320.812 368.289 321.417 369.872 321.5H391.872C393.039 321.542 393.997 321.979 394.747 322.812C395.539 323.646 395.935 324.646 395.935 325.812C395.893 326.938 395.477 327.896 394.685 328.688C393.935 329.438 392.997 329.833 391.872 329.875H368.935H367.747C364.831 329.708 362.414 328.604 360.497 326.562C358.622 324.479 357.268 322.125 356.435 319.5C355.643 316.875 355.247 314.188 355.247 311.438C355.247 308.688 355.664 306 356.497 303.375C357.331 300.75 358.685 298.417 360.56 296.375C362.435 294.292 364.831 293.167 367.747 293ZM395.81 311.188C395.81 312.354 395.393 313.333 394.56 314.125C393.768 314.958 392.789 315.375 391.622 315.375H372.747C371.581 315.375 370.581 314.979 369.747 314.188C368.956 313.354 368.56 312.354 368.56 311.188C368.56 310.021 368.956 309.021 369.747 308.188C370.581 307.396 371.581 307 372.747 307H391.622C392.789 307 393.768 307.417 394.56 308.25C395.393 309.042 395.81 310.021 395.81 311.188Z" fill="#E8F7FD"/>
<path d="M17.8109 370H10.2816V348.584H16.4047C19.0609 348.584 21.0775 348.984 22.4545 349.785C23.8412 350.586 24.5346 351.953 24.5346 353.887C24.5346 355.146 24.183 356.191 23.4799 357.021C22.7768 357.852 21.766 358.389 20.4477 358.633V358.779C21.3656 358.945 22.1811 359.214 22.894 359.585C23.6264 359.966 24.2025 360.508 24.6225 361.211C25.0424 361.914 25.2523 362.812 25.2523 363.906C25.2523 365.85 24.5883 367.354 23.2602 368.418C21.932 369.473 20.1156 370 17.8109 370ZM16.5219 350.884H12.977V357.695H16.9467C18.7631 357.695 20.0131 357.402 20.6967 356.816C21.39 356.221 21.7367 355.347 21.7367 354.194C21.7367 353.013 21.3217 352.168 20.4916 351.66C19.6615 351.143 18.3383 350.884 16.5219 350.884ZM17.0932 359.951H12.977V367.715H17.2982C19.2025 367.715 20.5209 367.349 21.2533 366.616C21.9955 365.874 22.3666 364.902 22.3666 363.701C22.3666 362.578 21.9809 361.675 21.2094 360.991C20.4477 360.298 19.0756 359.951 17.0932 359.951ZM46.6191 359.98H37.8887V367.627H47.1611V370H35.1934V348.584H47.1611V350.957H37.8887V357.637H46.6191V359.98ZM54.3629 370L62.7272 348.496H65.1588L73.5084 370H70.7106L68.1324 363.364H59.6363L57.0875 370H54.3629ZM62.9762 354.487L60.5445 360.977H67.3268L64.9244 354.487C64.8951 354.409 64.8561 354.302 64.8072 354.165C64.7584 354.019 64.6998 353.838 64.6315 353.623C64.5045 353.232 64.3678 352.808 64.2213 352.349C64.0846 351.89 63.9772 351.533 63.899 351.279C63.7428 351.904 63.5768 352.51 63.401 353.096C63.235 353.682 63.0934 354.146 62.9762 354.487ZM77.3996 348.584H93.4543V350.957H86.7893V370H84.0939V350.957H77.3996V348.584ZM114.235 364.272C114.235 366.167 113.542 367.646 112.155 368.711C110.778 369.766 108.918 370.293 106.574 370.293C105.383 370.293 104.274 370.205 103.249 370.029C102.233 369.854 101.384 369.604 100.7 369.282V366.704C101.423 367.017 102.316 367.305 103.381 367.568C104.455 367.832 105.563 367.964 106.706 367.964C108.278 367.964 109.474 367.656 110.295 367.041C111.115 366.416 111.525 365.571 111.525 364.507C111.525 363.804 111.379 363.213 111.086 362.734C110.783 362.246 110.261 361.807 109.518 361.416C108.776 361.016 107.765 360.576 106.486 360.098C104.65 359.443 103.268 358.638 102.341 357.681C101.423 356.714 100.964 355.4 100.964 353.74C100.964 352.617 101.257 351.646 101.843 350.825C103.044 349.126 105.031 348.276 107.804 348.276C108.967 348.276 110.036 348.389 111.013 348.613C111.999 348.828 112.902 349.116 113.722 349.478L112.873 351.792C112.14 351.47 111.33 351.201 110.441 350.986C109.562 350.762 108.664 350.649 107.746 350.649C106.408 350.649 105.397 350.938 104.714 351.514C104.04 352.08 103.703 352.832 103.703 353.77C103.703 354.492 103.854 355.093 104.157 355.571C104.45 356.05 104.938 356.484 105.622 356.875C106.305 357.266 107.223 357.671 108.376 358.091C109.626 358.54 110.69 359.033 111.569 359.57C112.438 360.107 113.097 360.747 113.547 361.489C114.006 362.222 114.235 363.149 114.235 364.272ZM144.664 370H137.135V348.584H143.258C145.914 348.584 147.931 348.984 149.308 349.785C150.694 350.586 151.388 351.953 151.388 353.887C151.388 355.146 151.036 356.191 150.333 357.021C149.63 357.852 148.619 358.389 147.301 358.633V358.779C148.219 358.945 149.034 359.214 149.747 359.585C150.479 359.966 151.056 360.508 151.476 361.211C151.896 361.914 152.105 362.812 152.105 363.906C152.105 365.85 151.441 367.354 150.113 368.418C148.785 369.473 146.969 370 144.664 370ZM143.375 350.884H139.83V357.695H143.8C145.616 357.695 146.866 357.402 147.55 356.816C148.243 356.221 148.59 355.347 148.59 354.194C148.59 353.013 148.175 352.168 147.345 351.66C146.515 351.143 145.191 350.884 143.375 350.884ZM143.946 359.951H139.83V367.715H144.151C146.056 367.715 147.374 367.349 148.106 366.616C148.849 365.874 149.22 364.902 149.22 363.701C149.22 362.578 148.834 361.675 148.062 360.991C147.301 360.298 145.929 359.951 143.946 359.951ZM158.531 370L166.895 348.496H169.327L177.676 370H174.879L172.3 363.364H163.804L161.255 370H158.531ZM167.144 354.487L164.713 360.977H171.495L169.092 354.487C169.063 354.409 169.024 354.302 168.975 354.165C168.926 354.019 168.868 353.838 168.799 353.623C168.672 353.232 168.536 352.808 168.389 352.349C168.253 351.89 168.145 351.533 168.067 351.279C167.911 351.904 167.745 352.51 167.569 353.096C167.403 353.682 167.261 354.146 167.144 354.487ZM200.449 360.669V348.584H202.969V370H199.82L188.364 352.217H188.247C188.267 352.559 188.286 352.949 188.306 353.389C188.335 353.818 188.364 354.292 188.394 354.81C188.452 355.845 188.482 356.919 188.482 358.032V370H185.991V348.584H189.112L200.537 366.309H200.654L200.581 364.858C200.552 364.224 200.523 363.535 200.493 362.793C200.464 362.041 200.449 361.333 200.449 360.669ZM211.577 348.584H227.632V350.957H220.967V370H218.271V350.957H211.577V348.584ZM247.68 359.98H238.95V367.627H248.222V370H236.254V348.584H248.222V350.957H238.95V357.637H247.68V359.98ZM261.02 370H258.324V348.584H264.228C266.894 348.584 268.861 349.092 270.131 350.107C271.4 351.113 272.035 352.632 272.035 354.663C272.035 355.815 271.825 356.768 271.405 357.52C270.985 358.281 270.448 358.892 269.794 359.351C269.149 359.81 268.466 360.161 267.743 360.405L273.617 370H270.468L265.282 361.152H261.02V370ZM264.081 350.913H261.02V358.867H264.228C265.976 358.867 267.245 358.525 268.036 357.842C268.837 357.148 269.237 356.133 269.237 354.795C269.237 353.389 268.817 352.393 267.978 351.807C267.138 351.211 265.839 350.913 264.081 350.913ZM303.109 370H295.579V348.584H301.702C304.359 348.584 306.375 348.984 307.752 349.785C309.139 350.586 309.832 351.953 309.832 353.887C309.832 355.146 309.481 356.191 308.778 357.021C308.074 357.852 307.064 358.389 305.745 358.633V358.779C306.663 358.945 307.479 359.214 308.192 359.585C308.924 359.966 309.5 360.508 309.92 361.211C310.34 361.914 310.55 362.812 310.55 363.906C310.55 365.85 309.886 367.354 308.558 368.418C307.23 369.473 305.413 370 303.109 370ZM301.82 350.884H298.275V357.695H302.244C304.061 357.695 305.311 357.402 305.994 356.816C306.688 356.221 307.034 355.347 307.034 354.194C307.034 353.013 306.619 352.168 305.789 351.66C304.959 351.143 303.636 350.884 301.82 350.884ZM302.391 359.951H298.275V367.715H302.596C304.5 367.715 305.819 367.349 306.551 366.616C307.293 365.874 307.664 364.902 307.664 363.701C307.664 362.578 307.279 361.675 306.507 360.991C305.745 360.298 304.373 359.951 302.391 359.951ZM323.186 348.584V367.598H332.547V370H320.491V348.584H323.186ZM347.644 350.137L345.124 350.737V367.876L347.644 368.447V370H339.91V368.447L342.429 367.876V350.737L339.91 350.137V348.584H347.644V350.137ZM369.348 364.272C369.348 366.167 368.654 367.646 367.268 368.711C365.891 369.766 364.03 370.293 361.687 370.293C360.495 370.293 359.387 370.205 358.361 370.029C357.346 369.854 356.496 369.604 355.812 369.282V366.704C356.535 367.017 357.429 367.305 358.493 367.568C359.567 367.832 360.676 367.964 361.818 367.964C363.391 367.964 364.587 367.656 365.407 367.041C366.228 366.416 366.638 365.571 366.638 364.507C366.638 363.804 366.491 363.213 366.198 362.734C365.896 362.246 365.373 361.807 364.631 361.416C363.889 361.016 362.878 360.576 361.599 360.098C359.763 359.443 358.381 358.638 357.453 357.681C356.535 356.714 356.076 355.4 356.076 353.74C356.076 352.617 356.369 351.646 356.955 350.825C358.156 349.126 360.144 348.276 362.917 348.276C364.079 348.276 365.148 348.389 366.125 348.613C367.111 348.828 368.015 349.116 368.835 349.478L367.985 351.792C367.253 351.47 366.442 351.201 365.554 350.986C364.675 350.762 363.776 350.649 362.858 350.649C361.521 350.649 360.51 350.938 359.826 351.514C359.152 352.08 358.815 352.832 358.815 353.77C358.815 354.492 358.967 355.093 359.27 355.571C359.562 356.05 360.051 356.484 360.734 356.875C361.418 357.266 362.336 357.671 363.488 358.091C364.738 358.54 365.803 359.033 366.682 359.57C367.551 360.107 368.21 360.747 368.659 361.489C369.118 362.222 369.348 363.149 369.348 364.272ZM391.212 364.272C391.212 366.167 390.519 367.646 389.132 368.711C387.755 369.766 385.895 370.293 383.551 370.293C382.36 370.293 381.252 370.205 380.226 370.029C379.211 369.854 378.361 369.604 377.677 369.282V366.704C378.4 367.017 379.294 367.305 380.358 367.568C381.432 367.832 382.541 367.964 383.683 367.964C385.255 367.964 386.452 367.656 387.272 367.041C388.092 366.416 388.503 365.571 388.503 364.507C388.503 363.804 388.356 363.213 388.063 362.734C387.76 362.246 387.238 361.807 386.496 361.416C385.754 361.016 384.743 360.576 383.463 360.098C381.628 359.443 380.246 358.638 379.318 357.681C378.4 356.714 377.941 355.4 377.941 353.74C377.941 352.617 378.234 351.646 378.82 350.825C380.021 349.126 382.008 348.276 384.782 348.276C385.944 348.276 387.013 348.389 387.99 348.613C388.976 348.828 389.879 349.116 390.7 349.478L389.85 351.792C389.118 351.47 388.307 351.201 387.419 350.986C386.54 350.762 385.641 350.649 384.723 350.649C383.385 350.649 382.375 350.938 381.691 351.514C381.017 352.08 380.68 352.832 380.68 353.77C380.68 354.492 380.832 355.093 381.134 355.571C381.427 356.05 381.916 356.484 382.599 356.875C383.283 357.266 384.201 357.671 385.353 358.091C386.603 358.54 387.668 359.033 388.546 359.57C389.416 360.107 390.075 360.747 390.524 361.489C390.983 362.222 391.212 363.149 391.212 364.272Z" fill="#E8F7FD"/>
</svg>
