<svg width="645" height="254" viewBox="0 0 645 254" fill="none" xmlns="http://www.w3.org/2000/svg">
<path d="M249.378 111.188C249.378 110.021 249.773 109.042 250.565 108.25C251.398 107.417 252.398 107 253.565 107H289.94C291.107 107 292.107 107.396 292.94 108.188C293.732 109.021 294.128 110.021 294.128 111.188C294.128 112.354 293.732 113.333 292.94 114.125C292.69 114.375 292.44 114.583 292.19 114.75L265.69 135.375H289.94C291.107 135.375 292.107 135.771 292.94 136.562C293.732 137.396 294.128 138.396 294.128 139.562C294.128 140.729 293.711 141.729 292.878 142.562C292.086 143.354 291.107 143.75 289.94 143.75H253.565C252.398 143.75 251.419 143.333 250.628 142.5C249.794 141.708 249.378 140.729 249.378 139.562C249.378 138.479 249.732 137.542 250.44 136.75H250.378L250.628 136.562C250.878 136.312 251.148 136.104 251.44 135.938L278.253 115.375H253.565C252.398 115.375 251.419 114.958 250.628 114.125C249.794 113.333 249.378 112.354 249.378 111.188ZM323.773 107H326.648H347.898C349.064 107.042 350.023 107.479 350.773 108.312C351.564 109.146 351.96 110.146 351.96 111.312C351.752 113.812 350.398 115.167 347.898 115.375H325.898C324.314 115.458 323.002 116.062 321.96 117.188C320.918 118.312 320.148 119.604 319.648 121.062C319.189 122.479 318.96 123.938 318.96 125.438C318.96 126.938 319.189 128.417 319.648 129.875C320.148 131.292 320.918 132.562 321.96 133.688C323.002 134.812 324.314 135.417 325.898 135.5H347.898C349.064 135.542 350.023 135.979 350.773 136.812C351.564 137.646 351.96 138.646 351.96 139.812C351.918 140.938 351.502 141.896 350.71 142.688C349.96 143.438 349.023 143.833 347.898 143.875H324.96H323.773C320.856 143.708 318.439 142.604 316.523 140.562C314.648 138.479 313.293 136.125 312.46 133.5C311.668 130.875 311.273 128.188 311.273 125.438C311.273 122.688 311.689 120 312.523 117.375C313.356 114.75 314.71 112.417 316.585 110.375C318.46 108.292 320.856 107.167 323.773 107ZM351.835 125.188C351.835 126.354 351.418 127.333 350.585 128.125C349.793 128.958 348.814 129.375 347.648 129.375H328.773C327.606 129.375 326.606 128.979 325.773 128.188C324.981 127.354 324.585 126.354 324.585 125.188C324.585 124.021 324.981 123.021 325.773 122.188C326.606 121.396 327.606 121 328.773 121H347.648C348.814 121 349.793 121.417 350.585 122.25C351.418 123.042 351.835 124.021 351.835 125.188ZM389.668 105.312C391.834 105.312 393.959 105.562 396.043 106.062C398.168 106.562 400.188 107.312 402.105 108.312C404.022 109.271 405.709 110.562 407.168 112.188C408.668 113.812 409.48 115.75 409.605 118V120.625V140.562C409.355 143.062 407.98 144.417 405.48 144.625C404.313 144.625 403.293 144.25 402.418 143.5C401.584 142.708 401.168 141.729 401.168 140.562V119.938C401.084 118.646 400.584 117.583 399.668 116.75C398.793 115.875 397.793 115.188 396.668 114.688C395.584 114.188 394.438 113.812 393.23 113.562C392.063 113.312 390.876 113.188 389.668 113.188C388.459 113.188 387.251 113.312 386.043 113.562C384.876 113.812 383.73 114.188 382.605 114.688C381.522 115.188 380.522 115.875 379.605 116.75C378.73 117.583 378.251 118.646 378.168 119.938V140.562C377.959 143.062 376.605 144.417 374.105 144.625C372.938 144.625 371.918 144.25 371.043 143.5C370.209 142.708 369.793 141.729 369.793 140.562V120.625V118C369.918 115.75 370.709 113.812 372.168 112.188C373.626 110.562 375.313 109.271 377.23 108.312C379.147 107.312 381.147 106.562 383.23 106.062C385.355 105.562 387.501 105.312 389.668 105.312ZM443.25 115.375C441.667 115.458 440.333 116.062 439.25 117.188C438.208 118.312 437.458 119.604 437 121.062C436.542 122.479 436.312 123.938 436.312 125.438C436.312 126.938 436.521 128.417 436.938 129.875C437.396 131.333 438.167 132.625 439.25 133.75C440.333 134.833 441.667 135.417 443.25 135.5H463.875C466.5 135.75 467.938 137.188 468.188 139.812C468.146 140.979 467.708 141.958 466.875 142.75C466.042 143.5 465.042 143.875 463.875 143.875H443.938H441.062C438.146 143.708 435.75 142.604 433.875 140.562C432 138.479 430.646 136.125 429.812 133.5C429.021 130.875 428.625 128.188 428.625 125.438C428.625 123.396 428.854 121.375 429.312 119.375C429.771 117.375 430.479 115.479 431.438 113.688C432.438 111.854 433.75 110.292 435.375 109C437.042 107.708 438.938 107.042 441.062 107H442.25H463.875C466.5 107.25 467.938 108.688 468.188 111.312C468.188 112.479 467.75 113.458 466.875 114.25C466.042 115 465.042 115.375 463.875 115.375H443.25ZM499.52 134.188C499.52 133.021 499.916 132.042 500.708 131.25C501.541 130.417 502.541 130 503.708 130H513.27L511.645 125.375C510.978 123.667 510.312 122.062 509.645 120.562C509.02 119.021 508.291 117.625 507.458 116.375C506.708 115.125 505.853 114.458 504.895 114.375C503.895 114.458 502.999 115.125 502.208 116.375C501.416 117.625 500.687 119.021 500.02 120.562C499.395 122.062 498.749 123.667 498.083 125.375L492.145 141.625C491.728 142.5 491.187 143.229 490.52 143.812C489.895 144.354 488.937 144.625 487.645 144.625C486.437 144.625 485.437 144.208 484.645 143.375C483.895 142.542 483.562 141.542 483.645 140.375C483.687 139.833 483.812 139.333 484.02 138.875L490.895 121.125C492.812 116.458 494.728 112.688 496.645 109.812C498.52 106.979 501.27 105.542 504.895 105.5C508.478 105.542 511.208 106.979 513.083 109.812C514.999 112.604 516.916 116.375 518.833 121.125L525.708 138.875C525.916 139.333 526.041 139.833 526.083 140.375C526.166 141.542 525.812 142.542 525.02 143.375C524.27 144.208 523.291 144.625 522.083 144.625C520.708 144.625 519.687 144.354 519.02 143.812C518.395 143.229 517.874 142.5 517.458 141.625L516.27 138.375H503.708C502.541 138.375 501.562 137.958 500.77 137.125C499.937 136.333 499.52 135.354 499.52 134.188ZM548.165 144.625C547.04 144.583 546.082 144.188 545.29 143.438C544.498 142.646 544.082 141.688 544.04 140.562V125C544.082 122.042 544.498 119.25 545.29 116.625C546.123 114 547.478 111.792 549.353 110C551.269 108.167 553.686 107.167 556.603 107H580.728C581.853 107.042 582.79 107.458 583.54 108.25C584.332 109 584.748 109.938 584.79 111.062C584.79 112.229 584.394 113.229 583.603 114.062C582.853 114.896 581.894 115.333 580.728 115.375H558.728C557.144 115.458 555.832 116.062 554.79 117.188C553.748 118.312 553.082 119.604 552.79 121.062C552.54 122.479 552.436 124.042 552.478 125.75V140.562C552.436 141.729 551.998 142.708 551.165 143.5C550.332 144.25 549.332 144.625 548.165 144.625ZM555.415 128.188C555.415 127.021 555.832 126.042 556.665 125.25C557.457 124.417 558.436 124 559.603 124H580.728C581.894 124 582.873 124.417 583.665 125.25C584.498 126.042 584.915 127.021 584.915 128.188C584.915 129.354 584.519 130.354 583.728 131.188C582.894 131.979 581.894 132.375 580.728 132.375H559.603C558.436 132.375 557.436 131.979 556.603 131.188C555.811 130.354 555.415 129.354 555.415 128.188ZM613.747 107H616.622H637.872C639.039 107.042 639.997 107.479 640.747 108.312C641.539 109.146 641.935 110.146 641.935 111.312C641.727 113.812 640.372 115.167 637.872 115.375H615.872C614.289 115.458 612.977 116.062 611.935 117.188C610.893 118.312 610.122 119.604 609.622 121.062C609.164 122.479 608.935 123.938 608.935 125.438C608.935 126.938 609.164 128.417 609.622 129.875C610.122 131.292 610.893 132.562 611.935 133.688C612.977 134.812 614.289 135.417 615.872 135.5H637.872C639.039 135.542 639.997 135.979 640.747 136.812C641.539 137.646 641.935 138.646 641.935 139.812C641.893 140.938 641.477 141.896 640.685 142.688C639.935 143.438 638.997 143.833 637.872 143.875H614.935H613.747C610.831 143.708 608.414 142.604 606.497 140.562C604.622 138.479 603.268 136.125 602.435 133.5C601.643 130.875 601.247 128.188 601.247 125.438C601.247 122.688 601.664 120 602.497 117.375C603.331 114.75 604.685 112.417 606.56 110.375C608.435 108.292 610.831 107.167 613.747 107ZM641.81 125.188C641.81 126.354 641.393 127.333 640.56 128.125C639.768 128.958 638.789 129.375 637.622 129.375H618.747C617.581 129.375 616.581 128.979 615.747 128.188C614.956 127.354 614.56 126.354 614.56 125.188C614.56 124.021 614.956 123.021 615.747 122.188C616.581 121.396 617.581 121 618.747 121H637.622C638.789 121 639.768 121.417 640.56 122.25C641.393 123.042 641.81 124.021 641.81 125.188Z" fill="#3ABBEE"/>
<path d="M249.378 106.188C249.378 105.021 249.773 104.042 250.565 103.25C251.398 102.417 252.398 102 253.565 102H289.94C291.107 102 292.107 102.396 292.94 103.188C293.732 104.021 294.128 105.021 294.128 106.188C294.128 107.354 293.732 108.333 292.94 109.125C292.69 109.375 292.44 109.583 292.19 109.75L265.69 130.375H289.94C291.107 130.375 292.107 130.771 292.94 131.562C293.732 132.396 294.128 133.396 294.128 134.562C294.128 135.729 293.711 136.729 292.878 137.562C292.086 138.354 291.107 138.75 289.94 138.75H253.565C252.398 138.75 251.419 138.333 250.628 137.5C249.794 136.708 249.378 135.729 249.378 134.562C249.378 133.479 249.732 132.542 250.44 131.75H250.378L250.628 131.562C250.878 131.312 251.148 131.104 251.44 130.938L278.253 110.375H253.565C252.398 110.375 251.419 109.958 250.628 109.125C249.794 108.333 249.378 107.354 249.378 106.188ZM323.773 102H326.648H347.898C349.064 102.042 350.023 102.479 350.773 103.312C351.564 104.146 351.96 105.146 351.96 106.312C351.752 108.812 350.398 110.167 347.898 110.375H325.898C324.314 110.458 323.002 111.062 321.96 112.188C320.918 113.312 320.148 114.604 319.648 116.062C319.189 117.479 318.96 118.938 318.96 120.438C318.96 121.938 319.189 123.417 319.648 124.875C320.148 126.292 320.918 127.562 321.96 128.688C323.002 129.812 324.314 130.417 325.898 130.5H347.898C349.064 130.542 350.023 130.979 350.773 131.812C351.564 132.646 351.96 133.646 351.96 134.812C351.918 135.938 351.502 136.896 350.71 137.688C349.96 138.438 349.023 138.833 347.898 138.875H324.96H323.773C320.856 138.708 318.439 137.604 316.523 135.562C314.648 133.479 313.293 131.125 312.46 128.5C311.668 125.875 311.273 123.188 311.273 120.438C311.273 117.688 311.689 115 312.523 112.375C313.356 109.75 314.71 107.417 316.585 105.375C318.46 103.292 320.856 102.167 323.773 102ZM351.835 120.188C351.835 121.354 351.418 122.333 350.585 123.125C349.793 123.958 348.814 124.375 347.648 124.375H328.773C327.606 124.375 326.606 123.979 325.773 123.188C324.981 122.354 324.585 121.354 324.585 120.188C324.585 119.021 324.981 118.021 325.773 117.188C326.606 116.396 327.606 116 328.773 116H347.648C348.814 116 349.793 116.417 350.585 117.25C351.418 118.042 351.835 119.021 351.835 120.188ZM389.668 100.312C391.834 100.312 393.959 100.562 396.043 101.062C398.168 101.562 400.188 102.312 402.105 103.312C404.022 104.271 405.709 105.562 407.168 107.188C408.668 108.812 409.48 110.75 409.605 113V115.625V135.562C409.355 138.062 407.98 139.417 405.48 139.625C404.313 139.625 403.293 139.25 402.418 138.5C401.584 137.708 401.168 136.729 401.168 135.562V114.938C401.084 113.646 400.584 112.583 399.668 111.75C398.793 110.875 397.793 110.188 396.668 109.688C395.584 109.188 394.438 108.812 393.23 108.562C392.063 108.312 390.876 108.188 389.668 108.188C388.459 108.188 387.251 108.312 386.043 108.562C384.876 108.812 383.73 109.188 382.605 109.688C381.522 110.188 380.522 110.875 379.605 111.75C378.73 112.583 378.251 113.646 378.168 114.938V135.562C377.959 138.062 376.605 139.417 374.105 139.625C372.938 139.625 371.918 139.25 371.043 138.5C370.209 137.708 369.793 136.729 369.793 135.562V115.625V113C369.918 110.75 370.709 108.812 372.168 107.188C373.626 105.562 375.313 104.271 377.23 103.312C379.147 102.312 381.147 101.562 383.23 101.062C385.355 100.562 387.501 100.312 389.668 100.312ZM443.25 110.375C441.667 110.458 440.333 111.062 439.25 112.188C438.208 113.312 437.458 114.604 437 116.062C436.542 117.479 436.312 118.938 436.312 120.438C436.312 121.938 436.521 123.417 436.938 124.875C437.396 126.333 438.167 127.625 439.25 128.75C440.333 129.833 441.667 130.417 443.25 130.5H463.875C466.5 130.75 467.938 132.188 468.188 134.812C468.146 135.979 467.708 136.958 466.875 137.75C466.042 138.5 465.042 138.875 463.875 138.875H443.938H441.062C438.146 138.708 435.75 137.604 433.875 135.562C432 133.479 430.646 131.125 429.812 128.5C429.021 125.875 428.625 123.188 428.625 120.438C428.625 118.396 428.854 116.375 429.312 114.375C429.771 112.375 430.479 110.479 431.438 108.688C432.438 106.854 433.75 105.292 435.375 104C437.042 102.708 438.938 102.042 441.062 102H442.25H463.875C466.5 102.25 467.938 103.688 468.188 106.312C468.188 107.479 467.75 108.458 466.875 109.25C466.042 110 465.042 110.375 463.875 110.375H443.25ZM499.52 129.188C499.52 128.021 499.916 127.042 500.708 126.25C501.541 125.417 502.541 125 503.708 125H513.27L511.645 120.375C510.978 118.667 510.312 117.062 509.645 115.562C509.02 114.021 508.291 112.625 507.458 111.375C506.708 110.125 505.853 109.458 504.895 109.375C503.895 109.458 502.999 110.125 502.208 111.375C501.416 112.625 500.687 114.021 500.02 115.562C499.395 117.062 498.749 118.667 498.083 120.375L492.145 136.625C491.728 137.5 491.187 138.229 490.52 138.812C489.895 139.354 488.937 139.625 487.645 139.625C486.437 139.625 485.437 139.208 484.645 138.375C483.895 137.542 483.562 136.542 483.645 135.375C483.687 134.833 483.812 134.333 484.02 133.875L490.895 116.125C492.812 111.458 494.728 107.688 496.645 104.812C498.52 101.979 501.27 100.542 504.895 100.5C508.478 100.542 511.208 101.979 513.083 104.812C514.999 107.604 516.916 111.375 518.833 116.125L525.708 133.875C525.916 134.333 526.041 134.833 526.083 135.375C526.166 136.542 525.812 137.542 525.02 138.375C524.27 139.208 523.291 139.625 522.083 139.625C520.708 139.625 519.687 139.354 519.02 138.812C518.395 138.229 517.874 137.5 517.458 136.625L516.27 133.375H503.708C502.541 133.375 501.562 132.958 500.77 132.125C499.937 131.333 499.52 130.354 499.52 129.188ZM548.165 139.625C547.04 139.583 546.082 139.188 545.29 138.438C544.498 137.646 544.082 136.688 544.04 135.562V120C544.082 117.042 544.498 114.25 545.29 111.625C546.123 109 547.478 106.792 549.353 105C551.269 103.167 553.686 102.167 556.603 102H580.728C581.853 102.042 582.79 102.458 583.54 103.25C584.332 104 584.748 104.938 584.79 106.062C584.79 107.229 584.394 108.229 583.603 109.062C582.853 109.896 581.894 110.333 580.728 110.375H558.728C557.144 110.458 555.832 111.062 554.79 112.188C553.748 113.312 553.082 114.604 552.79 116.062C552.54 117.479 552.436 119.042 552.478 120.75V135.562C552.436 136.729 551.998 137.708 551.165 138.5C550.332 139.25 549.332 139.625 548.165 139.625ZM555.415 123.188C555.415 122.021 555.832 121.042 556.665 120.25C557.457 119.417 558.436 119 559.603 119H580.728C581.894 119 582.873 119.417 583.665 120.25C584.498 121.042 584.915 122.021 584.915 123.188C584.915 124.354 584.519 125.354 583.728 126.188C582.894 126.979 581.894 127.375 580.728 127.375H559.603C558.436 127.375 557.436 126.979 556.603 126.188C555.811 125.354 555.415 124.354 555.415 123.188ZM613.747 102H616.622H637.872C639.039 102.042 639.997 102.479 640.747 103.312C641.539 104.146 641.935 105.146 641.935 106.312C641.727 108.812 640.372 110.167 637.872 110.375H615.872C614.289 110.458 612.977 111.062 611.935 112.188C610.893 113.312 610.122 114.604 609.622 116.062C609.164 117.479 608.935 118.938 608.935 120.438C608.935 121.938 609.164 123.417 609.622 124.875C610.122 126.292 610.893 127.562 611.935 128.688C612.977 129.812 614.289 130.417 615.872 130.5H637.872C639.039 130.542 639.997 130.979 640.747 131.812C641.539 132.646 641.935 133.646 641.935 134.812C641.893 135.938 641.477 136.896 640.685 137.688C639.935 138.438 638.997 138.833 637.872 138.875H614.935H613.747C610.831 138.708 608.414 137.604 606.497 135.562C604.622 133.479 603.268 131.125 602.435 128.5C601.643 125.875 601.247 123.188 601.247 120.438C601.247 117.688 601.664 115 602.497 112.375C603.331 109.75 604.685 107.417 606.56 105.375C608.435 103.292 610.831 102.167 613.747 102ZM641.81 120.188C641.81 121.354 641.393 122.333 640.56 123.125C639.768 123.958 638.789 124.375 637.622 124.375H618.747C617.581 124.375 616.581 123.979 615.747 123.188C614.956 122.354 614.56 121.354 614.56 120.188C614.56 119.021 614.956 118.021 615.747 117.188C616.581 116.396 617.581 116 618.747 116H637.622C638.789 116 639.768 116.417 640.56 117.25C641.393 118.042 641.81 119.021 641.81 120.188Z" fill="#E8F7FD"/>
<rect x="24" y="243" width="222" height="11" fill="#E8F7FD"/>
<rect y="233" width="50" height="10" fill="#E8F7FD"/>
<rect x="220" y="233" width="50" height="10" fill="#E8F7FD"/>
<rect x="20" y="222" width="30" height="15" fill="#E8F7FD"/>
<rect x="220" y="222" width="30" height="15" fill="#E8F7FD"/>
<rect x="200" y="222" width="27" height="9" fill="#E8F7FD"/>
<rect x="43" y="222" width="27" height="9" fill="#E8F7FD"/>
<rect x="105" y="194" width="8" height="22" fill="#B9E7F9"/>
<rect x="176" y="170" width="15" height="46" fill="#0E76A0"/>
<rect x="167" y="157" width="13" height="59" fill="#B9E7F9"/>
<path d="M77 46H105V88H77V46Z" fill="#0E76A0"/>
<rect x="175" y="48" width="27" height="40" fill="#0E76A0"/>
<rect x="159" y="51" width="21" height="16" fill="#E8F7FD"/>
<rect x="99" y="51" width="21" height="16" fill="#E8F7FD"/>
<rect x="53" y="159" width="17" height="11" fill="#0E76A0"/>
<rect x="73" y="194" width="21" height="11" fill="#0E76A0"/>
<rect x="88" y="170" width="15" height="46" fill="#0E76A0"/>
<rect x="99" y="151" width="21" height="54" fill="#E8F7FD"/>
<rect x="116" y="159" width="48" height="56" fill="#E8F7FD"/>
<rect x="150" y="173" width="20" height="53" fill="#E8F7FD"/>
<rect x="109" y="178" width="20" height="48" fill="#E8F7FD"/>
<rect x="116" y="194" width="45" height="11" fill="#E8F7FD"/>
<rect x="65" y="159" width="12" height="46" fill="#E8F7FD"/>
<rect x="99" y="194" width="10" height="22" fill="#B9E7F9"/>
<rect x="120" y="194" width="10" height="32" fill="#B9E7F9"/>
<rect x="149" y="194" width="10" height="32" fill="#B9E7F9"/>
<rect x="125" y="205" width="29" height="10" fill="#B9E7F9"/>
<rect x="159" y="146" width="21" height="32" fill="#B9E7F9"/>
<rect x="120" y="145" width="47" height="21" fill="#B9E7F9"/>
<rect x="99" y="144" width="27" height="12" fill="#B9E7F9"/>
<rect x="131" y="114" width="18" height="17" fill="#E8F7FD"/>
<rect x="122" y="127" width="13" height="9" fill="#E8F7FD"/>
<rect x="145" y="127" width="15" height="9" fill="#E8F7FD"/>
<rect x="135" y="127" width="10" height="9" fill="#0E76A0"/>
<rect x="177" y="131" width="14" height="16" fill="#0E76A0"/>
<rect x="88" y="132" width="13" height="15" fill="#0E76A0"/>
<rect x="77" y="122" width="17" height="18" fill="#0E76A0"/>
<rect x="186" y="123" width="16" height="17" fill="#0E76A0"/>
<rect x="172" y="83" width="30" height="44" fill="#3ABBEE"/>
<rect x="77" y="83" width="31" height="44" fill="#3ABBEE"/>
<rect x="95" y="83" width="89" height="28" fill="#3ABBEE"/>
<rect x="116" y="107" width="48" height="11" fill="#3ABBEE"/>
<rect x="98" y="73" width="82" height="17" fill="#3ABBEE"/>
<rect x="104" y="63" width="72" height="15" fill="#3ABBEE"/>
<rect x="94" y="63" width="14" height="10" fill="#0E76A0"/>
<rect x="170" y="63" width="15" height="10" fill="#0E76A0"/>
<rect x="170" y="41" width="32" height="10" fill="#E8F7FD"/>
<path d="M77 41H108V51H77V41Z" fill="#E8F7FD"/>
<rect x="45" y="22" width="16" height="6" fill="#E8F7FD"/>
<rect x="50" y="33" width="16" height="6" transform="rotate(-90 50 33)" fill="#E8F7FD"/>
<rect x="214" y="29" width="16" height="6" fill="#E8F7FD"/>
<rect x="219" y="40" width="16" height="6" transform="rotate(-90 219 40)" fill="#E8F7FD"/>
<rect x="222" y="104" width="16" height="6" fill="#E8F7FD"/>
<rect x="227" y="115" width="16" height="6" transform="rotate(-90 227 115)" fill="#E8F7FD"/>
<rect x="43" y="107" width="16" height="6" fill="#E8F7FD"/>
<rect x="48" y="118" width="16" height="6" transform="rotate(-90 48 118)" fill="#E8F7FD"/>
<rect x="136" width="8" height="13" fill="#E8F7FD"/>
<rect x="132" y="6" width="16" height="7" fill="#E8F7FD"/>
<rect x="159" y="13" width="7" height="16" fill="#E8F7FD"/>
<rect x="114" y="13" width="7" height="16" fill="#E8F7FD"/>
<rect x="163" y="17" width="8" height="8" fill="#E8F7FD"/>
<rect x="109" y="17" width="8" height="8" fill="#E8F7FD"/>
<rect x="120" y="25" width="8" height="12" fill="#E8F7FD"/>
<rect x="152" y="25" width="8" height="12" fill="#E8F7FD"/>
<rect x="136" y="19" width="8" height="19" fill="#E8F7FD"/>
<rect x="120" y="36" width="40" height="12" fill="#B9E7F9"/>
<rect x="128" y="32" width="24" height="10" fill="#E8F7FD"/>
<rect x="99" y="132" width="81" height="15" fill="#E8F7FD"/>
<rect x="156" y="127" width="36" height="9" fill="#3ABBEE"/>
<rect x="88" y="124" width="36" height="12" fill="#3ABBEE"/>
<rect x="148" y="116" width="17" height="11" fill="#3ABBEE"/>
<rect x="117" y="115" width="16" height="12" fill="#3ABBEE"/>
<rect x="160" y="107" width="20" height="20" fill="black"/>
<rect x="99" y="107" width="21" height="20" fill="black"/>
<rect x="180" y="122" width="12" height="9" fill="#3ABBEE"/>
<rect x="170" y="47" width="10" height="9" fill="#E8F7FD"/>
<rect x="99" y="48" width="9" height="7" fill="#E8F7FD"/>
<rect x="125" y="32" width="30" height="4" fill="#E8F7FD"/>
<rect x="24" y="240" width="26" height="7" fill="#E8F7FD"/>
<rect x="220" y="240" width="26" height="7" fill="#E8F7FD"/>
</svg>
